<svg role="img" viewBox="0 0 40 40" xmlns="http://www.w3.org/2000/svg" id="Flatpak--Streamline-Simple-Icons.svg" height="40" width="40"><desc>Flatpak Streamline Icon: https://streamlinehq.com</desc><title>Flatpak</title><path d="M20 0c-0.9266666666666667 0 -1.8516666666666668 0.24 -2.6833333333333336 0.72l-12.671666666666667 7.316666666666666a5.361666666666667 5.361666666666667 0 0 0 -2.6833333333333336 4.6466666666666665v14.633333333333333c0 1.9183333333333334 1.02 3.686666666666667 2.6833333333333336 4.6466666666666665l12.671666666666667 7.316666666666666a5.361666666666667 5.361666666666667 0 0 0 5.366666666666667 0l12.671666666666667 -7.316666666666666a5.361666666666667 5.361666666666667 0 0 0 2.6833333333333336 -4.6466666666666665V12.683333333333334a5.361666666666667 5.361666666666667 0 0 0 -2.6833333333333336 -4.6466666666666665L22.683333333333334 0.72A5.363333333333333 5.363333333333333 0 0 0 20 0Zm0 3.93c0.25 0 0.49833333333333335 0.065 0.7183333333333334 0.19166666666666668l12.673333333333334 7.316666666666666c0.22000000000000003 0.12833333333333333 0.4 0.3116666666666667 0.525 0.5266666666666667L20 20v16.07a1.4383333333333335 1.4383333333333335 0 0 1 -0.7183333333333334 -0.19333333333333336l-12.673333333333334 -7.316666666666666a1.4433333333333334 1.4433333333333334 0 0 1 -0.7183333333333334 -1.2433333333333334V12.683333333333334c0 -0.255 0.06833333333333334 -0.5033333333333333 0.19333333333333336 -0.7166666666666667L20 20Z" fill="#4734a8" stroke-width="1"></path></svg>