<svg role="img" viewBox="-0.5 -0.5 15 15" xmlns="http://www.w3.org/2000/svg" id="Flatpak--Streamline-Simple-Icons.svg" height="15" width="15"><desc>Flatpak Streamline Icon: https://streamlinehq.com</desc><title>Flatpak</title><path d="M7 0c-0.32433333333333336 0 -0.6480833333333333 0.084 -0.9391666666666668 0.252l-4.435083333333333 2.5608333333333335a1.8765833333333335 1.8765833333333335 0 0 0 -0.9391666666666668 1.6263333333333334v5.121666666666667c0 0.6714166666666668 0.35700000000000004 1.2903333333333336 0.9391666666666668 1.6263333333333334l4.435083333333333 2.5608333333333335a1.8765833333333335 1.8765833333333335 0 0 0 1.8783333333333336 0l4.435083333333333 -2.5608333333333335a1.8765833333333335 1.8765833333333335 0 0 0 0.9391666666666668 -1.6263333333333334V4.439166666666667a1.8765833333333335 1.8765833333333335 0 0 0 -0.9391666666666668 -1.6263333333333334L7.939166666666667 0.252A1.8771666666666669 1.8771666666666669 0 0 0 7 0Zm0 1.3755000000000002c0.08750000000000001 0 0.17441666666666666 0.022750000000000003 0.2514166666666667 0.06708333333333334l4.435666666666667 2.5608333333333335c0.07700000000000001 0.04491666666666667 0.14 0.10908333333333334 0.18375000000000002 0.18433333333333335L7 7v5.6245a0.5034166666666667 0.5034166666666667 0 0 1 -0.2514166666666667 -0.06766666666666668l-4.435666666666667 -2.5608333333333335a0.5051666666666667 0.5051666666666667 0 0 1 -0.2514166666666667 -0.4351666666666667V4.439166666666667c0 -0.08925000000000001 0.02391666666666667 -0.17616666666666667 0.06766666666666668 -0.25083333333333335L7 7Z" fill="#000000" stroke-width="1"></path></svg>