<svg role="img" viewBox="0 0 70 70" xmlns="http://www.w3.org/2000/svg" id="Flathub--Streamline-Simple-Icons.svg" height="70" width="70"><desc>Flathub Streamline Icon: https://streamlinehq.com</desc><title>Flathub</title><path d="M17.69833333333333 0a17.5 17.5 0 0 0 -17.5 17.5 17.5 17.5 0 0 0 17.5 17.5 17.5 17.5 0 0 0 17.494166666666665 -17.5 17.5 17.5 0 0 0 -17.494166666666665 -17.5Zm26.6875 0.23333333333333334a4.829999999999999 4.829999999999999 0 0 0 -4.824166666666666 4.829999999999999v23.770833333333332a4.829999999999999 4.829999999999999 0 0 0 7.242083333333333 4.182499999999999l20.585833333333333 -11.882499999999999a4.829999999999999 4.829999999999999 0 0 0 0 -8.367916666666666l-3.045 -1.7616666666666665 -17.54083333333333 -10.120833333333334a4.829999999999999 4.829999999999999 0 0 0 -2.4149999999999996 -0.6504166666666666Zm10.427083333333334 38.31041666666666a2.377083333333333 2.377083333333333 0 0 0 -2.38 2.3858333333333333v7.154583333333332h-7.1575a2.3829166666666666 2.3829166666666666 0 1 0 0 4.76875h7.1575v7.154583333333332a2.3829166666666666 2.3829166666666666 0 1 0 4.76875 0v-7.154583333333332h7.151666666666666a2.3829166666666666 2.3829166666666666 0 1 0 0 -4.76875h-7.154583333333332v-7.154583333333332a2.3829166666666666 2.3829166666666666 0 0 0 -2.3858333333333333 -2.3858333333333333zM8.356250000000001 39.375a8.149166666666666 8.149166666666666 0 0 0 -8.163749999999999 8.166666666666666v14.291666666666668c0 4.520833333333333 3.6399999999999997 8.166666666666666 8.166666666666666 8.166666666666666h14.291666666666668c4.520833333333333 0 8.166666666666666 -3.645833333333333 8.166666666666666 -8.166666666666666v-14.291666666666668c0 -4.520833333333333 -3.645833333333333 -8.166666666666666 -8.166666666666666 -8.166666666666666Z" fill="#000000" stroke-width="1"></path></svg>