<svg role="img" viewBox="0 0 30 30" xmlns="http://www.w3.org/2000/svg" id="Flatpak--Streamline-Simple-Icons.svg" height="30" width="30"><desc>Flatpak Streamline Icon: https://streamlinehq.com</desc><title>Flatpak</title><path d="M15 0c-0.6950000000000001 0 -1.38875 0.18 -2.0125 0.54l-9.50375 5.4875a4.02125 4.02125 0 0 0 -2.0125 3.485v10.975c0 1.43875 0.765 2.765 2.0125 3.485l9.50375 5.4875a4.02125 4.02125 0 0 0 4.025 0l9.50375 -5.4875a4.02125 4.02125 0 0 0 2.0125 -3.485V9.512500000000001a4.02125 4.02125 0 0 0 -2.0125 -3.485L17.0125 0.54A4.0225 4.0225 0 0 0 15 0Zm0 2.9475000000000002c0.1875 0 0.37374999999999997 0.04875 0.53875 0.14375000000000002l9.505 5.4875c0.165 0.09625 0.3 0.23375 0.39375 0.395L15 15v12.052499999999998a1.0787499999999999 1.0787499999999999 0 0 1 -0.53875 -0.14500000000000002l-9.505 -5.4875a1.0825 1.0825 0 0 1 -0.53875 -0.9325V9.512500000000001c0 -0.19125 0.051250000000000004 -0.3775 0.14500000000000002 -0.5375L15 15Z" fill="#000000" stroke-width="1"></path></svg>