<svg xmlns="http://www.w3.org/2000/svg" fill="none" viewBox="-0.5 -0.5 70 70" id="Github-Icon--Streamline-Svg-Logos.svg" height="70" width="70"><desc>Github Icon Streamline Icon: https://streamlinehq.com</desc><path fill="#161614" d="M34.5002875 1.5526149999999999C15.84570625 1.5526149999999999 0.71875 16.676796875 0.71875 35.334109375c0 14.925562499999998 9.67940625 27.58835625 23.101846875 32.055243749999995 1.68834375 0.31265625 2.308121875 -0.7328375 2.308121875 -1.62509375 0 -0.805575 -0.0313375 -3.466675 -0.045856249999999994 -6.289421875 -9.398015625 2.043478125 -11.38111875 -3.98575625 -11.38111875 -3.98575625 -1.5367593750000001 -3.90468125 -3.7508687500000004 -4.9429875 -3.7508687500000004 -4.9429875 -3.064965625 -2.096665625 0.23100625000000002 -2.053540625 0.23100625000000002 -2.053540625 3.3922843749999996 0.238265625 5.17845 3.48119375 5.17845 3.48119375 3.013 5.164434375 7.9028 3.671375 9.8304875 2.808228125 0.303240625 -2.18341875 1.178678125 -3.6736750000000002 2.14475 -4.5172718750000005 -7.503318749999999 -0.8541624999999999 -15.390953125 -3.750796875 -15.390953125 -16.694909374999998 0 -3.68819375 1.319625 -6.701768749999999 3.48061875 -9.067462500000001 -0.35075 -0.85085625 -1.5070031249999998 -4.28676875 0.327246875 -8.939884375 0 0 2.8367625 -0.9079250000000001 9.292359375 3.462721875 2.694665625 -0.74850625 5.58454375 -1.1238375 8.455446875 -1.136703125 2.870903125 0.012865624999999999 5.763009375 0.388196875 8.46270625 1.136703125 6.4477625000000005 -4.370646875 9.280571875 -3.462721875 9.280571875 -3.462721875 1.838778125 4.653115625 0.68195 8.089028125 0.3312 8.939884375 2.166025 2.3656937499999997 3.4767375 5.3792687500000005 3.4767375 9.067462500000001 0 12.974874999999999 -7.9028 15.831762500000002 -15.425165624999998 16.6681 1.21166875 1.048296875 2.291375 3.1041375 2.291375 6.25585625 0 4.520003125000001 -0.039171875 8.1578125 -0.039171875 9.270509375 0 0.8989406249999999 0.6080625 1.952340625 2.3204125 1.620565625C58.614134375 62.912978124999995 68.28125 50.254640625 68.28125 35.334109375c0 -18.6573125 -15.124728124999999 -33.781494375 -33.7809625 -33.781494375ZM13.37105 49.675112500000004c-0.074390625 0.16782812500000002 -0.338459375 0.218140625 -0.579025 0.10292499999999999 -0.245021875 -0.110184375 -0.382590625 -0.3389625 -0.30316875 -0.5073656249999999 0.0727375 -0.17285937499999998 0.337309375 -0.221015625 0.58175625 -0.10515312500000001 0.245596875 0.110184375 0.385465625 0.341190625 0.30043749999999997 0.50959375Zm1.6616781250000001 1.482709375c-0.16114375 0.14935625 -0.47609999999999997 0.079996875 -0.689784375 -0.15611250000000002 -0.22094375 -0.2354625 -0.26234375 -0.5504187500000001 -0.09897187499999999 -0.7020031250000001 0.166103125 -0.149428125 0.47157187500000003 -0.07949375 0.6930906250000001 0.156040625 0.22094375 0.2383375 0.263996875 0.55099375 0.095665625 0.702075Zm1.1399375 1.896996875c-0.207 0.143821875 -0.5453875 0.008984375000000001 -0.754615625 -0.29138125 -0.207 -0.30043749999999997 -0.207 -0.660675 0.00445625 -0.805 0.209803125 -0.144325 0.543159375 -0.014590625 0.755190625 0.28361875000000003 0.206425 0.305396875 0.206425 0.66570625 -0.00503125 0.8127625Zm1.927975 2.197075c-0.18522187499999998 0.204196875 -0.5796 0.14935625 -0.86825 -0.12923125 -0.295334375 -0.27240625 -0.377559375 -0.6589499999999999 -0.19183437500000003 -0.8631468750000001 0.18737812499999998 -0.204771875 0.583984375 -0.147128125 0.8748625000000001 0.12923125 0.293178125 0.271903125 0.3826625 0.66125 0.18522187499999998 0.8631468750000001Zm2.49161875 0.74175c-0.08165 0.264571875 -0.461509375 0.38481875 -0.8441000000000001 0.27240625 -0.38208749999999997 -0.115790625 -0.632140625 -0.42571562500000004 -0.554946875 -0.6930906250000001 0.079421875 -0.266296875 0.460934375 -0.39157499999999995 0.8464 -0.271328125 0.38151250000000003 0.115215625 0.632140625 0.4229125 0.552646875 0.6920125Zm2.835684375 0.314596875c0.0094875 0.2785875 -0.31495625 0.50959375 -0.71659375 0.514625 -0.40393750000000006 0.008984375000000001 -0.730609375 -0.21648750000000003 -0.735065625 -0.49061875 0 -0.28131875 0.317184375 -0.51016875 0.7210500000000001 -0.516853125 0.4016375 -0.007834375 0.730609375 0.2159125 0.730609375 0.49284687499999996Zm2.7856593750000003 -0.10680625c0.048084375 0.271903125 -0.23100625000000002 0.55099375 -0.6299125 0.6254562499999999 -0.39215 0.0715875 -0.755190625 -0.096240625 -0.805 -0.365915625 -0.048659375 -0.2785875 0.235534375 -0.557678125 0.6271093750000001 -0.6298406249999999 0.39940937499999996 -0.069359375 0.756915625 0.09394062500000001 0.807803125 0.3703Z" stroke-width="1"></path></svg>