<svg xmlns="http://www.w3.org/2000/svg" fill="none" viewBox="-0.5 -0.5 40 40" id="Stackbit--Streamline-Svg-Logos.svg" height="40" width="40"><desc>Stackbit Streamline Icon: https://streamlinehq.com</desc><path fill="#000022" d="M11.548225 16.755415625c1.062871875 0 1.803953125 0.50870625 2.0934875 1.2051l-0.83305625 0.83451875c0 -0.6597093749999999 -0.482340625 -1.128115625 -1.26043125 -1.128115625 -0.630378125 0 -1.081559375 0.28770625 -1.081559375 0.762328125 0 0.43208750000000007 0.36294375 0.607140625 0.85028125 0.729625l0.129796875 0.030915625000000002 0.13450937500000001 0.02933125 0.49420312499999997 0.1018875 0.14401562499999998 0.032215625 0.14356875 0.0351c0.762734375 0.1961375 1.4652218750000001 0.5487625 1.4652218750000001 1.60866875 0 1.112678125 -0.9727250000000001 1.7430562500000002 -2.21771875 1.7430562500000002 -1.0434531249999999 0 -1.91205625 -0.45991562500000005 -2.238234375 -1.309465625l0.8843656249999999 -0.8847718750000001c0 0.7858093749999999 0.5131343749999999 1.282775 1.35386875 1.282775 0.6597093749999999 0 1.15155625 -0.30346875 1.15155625 -0.7934875 0 -0.46288124999999997 -0.40669687500000007 -0.63578125 -0.9371375 -0.7600125l-0.13503749999999998 -0.030225 -0.49903749999999997 -0.101765625 -0.219090625 -0.048100000000000004 -0.14535625 -0.035628125c-0.747378125 -0.19329375 -1.425896875 -0.5403125 -1.425896875 -1.56121875 0 -1.0504 0.964965625 -1.7427312499999998 2.1476812499999998 -1.7427312499999998Zm3.8553125 0.28116562500000003v1.539321875h1.136159375v0.8580000000000001h-1.136159375v1.805375c0 0.45885937499999996 0.163434375 0.575778125 0.5527031250000001 0.575778125 0.180375 -0.005809375 0.359978125 -0.026650000000000004 0.5369 -0.062318750000000006v0.8796125c-0.093315625 0.03615625 -0.30428125 0.06565 -0.47372812499999994 0.081290625l-0.11683750000000001 0.00901875c-0.03469375 0.002071875 -0.064309375 0.0031687499999999997 -0.08636875000000001 0.0031687499999999997 -0.92616875 0 -1.4242312499999998 -0.389228125 -1.4242312499999998 -1.34615v-1.945775h-0.732996875v-0.8565375000000001h0.732996875V18.048875l1.0115625000000001 -1.01229375Zm22.054053125000003 0v1.539321875h1.136078125v0.8580000000000001h-1.136078125v1.805375c0 0.45885937499999996 0.16347499999999998 0.575778125 0.5525 0.575778125 0.180496875 -0.005809375 0.3601 -0.026650000000000004 0.537021875 -0.062318750000000006v0.8796125c-0.093275 0.03615625 -0.304321875 0.06565 -0.47376874999999996 0.081290625l-0.11683750000000001 0.00901875c-0.03469375 0.002071875 -0.064309375 0.0031687499999999997 -0.08632812499999999 0.0031687499999999997 -0.926046875 0 -1.424271875 -0.389228125 -1.424271875 -1.34615v-1.945775h-0.7330375v-0.8565375000000001h0.7330375V18.048875l1.011684375 -1.01229375Zm-12.1017 2.5438968749999997 -0.89496875 0.5211781249999999c-0.0931125 -0.459265625 -0.5131343749999999 -0.74693125 -1.011196875 -0.74693125 -0.6597093749999999 0 -1.1284406249999999 0.451140625 -1.1284406249999999 1.22923125 0 0.778090625 0.45918437500000003 1.232196875 1.1284406249999999 1.232196875 0.4823 0 0.89464375 -0.31923125 1.011196875 -0.72385625l0.8715281250000001 0.5057812500000001c-0.272309375 0.645775 -0.980403125 1.143878125 -1.8827250000000002 1.143878125 -1.2996343750000001 0 -2.1788812500000003 -0.8796531249999999 -2.1788812500000003 -2.1554406249999998 0 -1.26806875 0.9104062500000001 -2.1554 2.1788812500000003 -2.1554 0.89464375 -0.0018281249999999999 1.641575 0.496234375 1.9061656249999999 1.1493625Zm1.267378125 -2.675521875v3.159284375l1.51734375 -1.4861843750000001h1.35386875l-1.7431375 1.68845625 1.781975 2.355925h-1.23695l-1.2530781249999998 -1.6731 -0.420021875 0.4031625v1.2699375h-1.0115625000000001V16.90495625h1.0115625000000001Zm4.120471875 0v2.10006875c0.3111875 -0.349984375 0.7548125 -0.575778125 1.34639375 -0.575778125 1.198153125 0 2.0382781249999997 0.9338468750000001 2.0382781249999997 2.171203125 0 1.221553125 -0.840125 2.139596875 -2.0460375 2.139596875 -0.59158125 0 -1.034921875 -0.225753125 -1.346109375 -0.5757375v0.458128125h-1.003925V16.90495625h1.0113999999999999Zm1.144121875 4.9177375c0.684409375 0 1.1903937500000001 -0.49038437500000004 1.1903937500000001 -1.221553125 0 -0.74693125 -0.505984375 -1.2526718749999999 -1.1903937500000001 -1.2526718749999999 -0.645896875 0 -1.175159375 0.49001874999999995 -1.175159375 1.2526718749999999 0 0.7462 0.53105 1.2208625 1.175159375 1.2208625v0.0006906249999999999Zm2.512615625 -4.9177375h1.05048125v1.0115625000000001h-1.05048125v-1.0115625000000001Zm1.026309375 1.6731v4.04438125h-1.011684375v-4.0451125l1.011684375 0.00073125Zm-14.435240624999999 -0.012837500000000002 0.00040625000000000004 4.057178125h-0.975284375l0.015396875 -0.50724375c-0.311878125 0.3745625 -0.772240625 0.6230656250000001 -1.388684375 0.6230656250000001 -1.2094874999999998 0 -2.052415625 -0.92064375 -2.052415625 -2.145528125 0 -1.24060625 0.834884375 -2.1770125 2.044371875 -2.1770125 0.58638125 0 1.02984375 0.22611874999999998 1.3417218750000002 0.5695625V18.56521875h1.0144875Zm-2.1619812499999997 3.252721875c0.6476031250000001 0 1.18600625 -0.47645000000000004 1.18600625 -1.224884375 0 -0.7648875 -0.538403125 -1.25636875 -1.18600625 -1.25636875 -0.6787625 0 -1.18600625 0.50724375 -1.18600625 1.25636875 0.002925 0.7345 0.508340625 1.22598125 1.1870625000000001 1.22598125l-0.00105625 -0.001096875Z" stroke-width="1"></path><path fill="#FF364E" d="m4.88856875 18.2498875 1.5517937499999999 0.783209375c0.13203125000000002 0.0661375 0.2431 0.1677 0.320815625 0.2933125 0.06654375 0.10765625000000001 0.106315625 0.229409375 0.116390625 0.35498125l0.002559375 0.063090625v1.79294375c0 0.31691562500000003 -0.12585625 0.62083125 -0.349903125 0.844959375 -0.208040625 0.20812187499999998 -0.484940625 0.33158125 -0.777196875 0.348278125l-0.06768125 0.00195H0.4102596875l1.9897475000000002 -1.99233125h2.4885615624999997v-2.49039375Zm1.98794375 -1.991965625 -1.98794375 1.991965625 -2.488533125 0 -0.0000284375 2.49039375 -1.5557831249999998 -0.781015625c-0.1317184375 -0.0664625 -0.24240531250000003 -0.168228125 -0.3197309375 -0.293921875 -0.06627968749999999 -0.107696875 -0.1058078125 -0.229328125 -0.11574875 -0.35481874999999996L0.40625 19.247515625000002V17.4549375c-0.00023684375 -0.157096875 0.030501249999999997 -0.31273125 0.090455625 -0.45792499999999997 0.059954375 -0.145234375 0.1479521875 -0.277184375 0.2589559375 -0.38837499999999997 0.1110078125 -0.111190625 0.2428440625 -0.1993875 0.38796875 -0.259553125 0.12093656250000001 -0.050131249999999995 0.24912062499999998 -0.08003125 0.3794090625 -0.0885625l0.078381875 -0.0026000000000000003H6.8765125000000005Z" stroke-width="1"></path></svg>