<svg xmlns="http://www.w3.org/2000/svg" fill="none" viewBox="0 0 100 100" id="Stackbit--Streamline-Svg-Logos.svg" height="100" width="100"><desc>Stackbit Streamline Icon: https://streamlinehq.com</desc><path fill="#000022" d="M29.610833333333336 42.96260416666667c2.7253125000000002 0 4.625520833333334 1.304375 5.367916666666667 3.0900000000000003l-2.136041666666667 2.1397916666666665c0 -1.6915625 -1.2367708333333334 -2.8926041666666666 -3.231875 -2.8926041666666666 -1.6163541666666668 0 -2.773229166666667 0.7377083333333334 -2.773229166666667 1.9546875000000001 0 1.1079166666666669 0.930625 1.5567708333333334 2.1802083333333333 1.8708333333333336l0.3328125 0.07927083333333335 0.34489583333333335 0.07520833333333334 1.2671875 0.26125000000000004 0.3692708333333333 0.08260416666666667 0.36812500000000004 0.09000000000000001c1.9557291666666667 0.5029166666666667 3.756979166666667 1.4070833333333335 3.756979166666667 4.124791666666667 0 2.853020833333334 -2.494166666666667 4.469375 -5.686458333333333 4.469375 -2.675520833333333 0 -4.902708333333334 -1.1792708333333335 -5.7390625 -3.357604166666667l2.2676041666666666 -2.2686458333333337c0 2.0148958333333336 1.3157291666666666 3.289166666666667 3.4714583333333335 3.289166666666667 1.6915625 0 2.9527083333333337 -0.7781250000000001 2.9527083333333337 -2.0345833333333334 0 -1.1868750000000001 -1.0428125000000001 -1.6302083333333335 -2.4029166666666666 -1.9487500000000002l-0.34625 -0.0775 -1.2795833333333333 -0.26093750000000004 -0.5617708333333333 -0.12333333333333335 -0.37270833333333336 -0.09135416666666667c-1.9163541666666666 -0.49562500000000004 -3.6561458333333334 -1.3854166666666667 -3.6561458333333334 -4.003125 0 -2.6933333333333334 2.4742708333333336 -4.468541666666667 5.506875 -4.468541666666667Zm9.885416666666668 0.7209375000000001v3.946979166666667h2.913229166666667v2.2h-2.913229166666667v4.629166666666667c0 1.1765625 0.4190625 1.4763541666666669 1.4171875 1.4763541666666669 0.4625 -0.014895833333333334 0.9230208333333334 -0.06833333333333334 1.376666666666667 -0.1597916666666667v2.2554166666666666c-0.23927083333333335 0.09270833333333334 -0.7802083333333334 0.16833333333333333 -1.2146875 0.20843750000000003l-0.29958333333333337 0.023125000000000003c-0.08895833333333335 0.0053125 -0.16489583333333335 0.008125 -0.22145833333333337 0.008125 -2.374791666666667 0 -3.651875 -0.9980208333333334 -3.651875 -3.451666666666667v-4.989166666666667h-1.8794791666666668v-2.19625h1.8794791666666668V46.27916666666667l2.5937500000000004 -2.595625Zm56.54885416666667 0v3.946979166666667h2.9130208333333334v2.2h-2.9130208333333334v4.629166666666667c0 1.1765625 0.4191666666666667 1.4763541666666669 1.416666666666667 1.4763541666666669 0.4628125 -0.014895833333333334 0.9233333333333333 -0.06833333333333334 1.3769791666666669 -0.1597916666666667v2.2554166666666666c-0.2391666666666667 0.09270833333333334 -0.7803125000000001 0.16833333333333333 -1.2147916666666667 0.20843750000000003l-0.29958333333333337 0.023125000000000003c-0.08895833333333335 0.0053125 -0.16489583333333335 0.008125 -0.22135416666666669 0.008125 -2.374479166666667 0 -3.651979166666667 -0.9980208333333334 -3.651979166666667 -3.451666666666667v-4.989166666666667h-1.8795833333333334v-2.19625h1.8795833333333334V46.27916666666667l2.5940625 -2.595625Zm-31.03 6.522812500000001 -2.294791666666667 1.3363541666666667c-0.23875 -1.1776041666666668 -1.3157291666666666 -1.9152083333333334 -2.5928125000000004 -1.9152083333333334 -1.6915625 0 -2.8934375 1.1567708333333335 -2.8934375 3.151875 0 1.995104166666667 1.1773958333333334 3.159479166666667 2.8934375 3.159479166666667 1.2366666666666668 0 2.2939583333333333 -0.8185416666666668 2.5928125000000004 -1.8560416666666668l2.2346875 1.2968750000000002c-0.6982291666666667 1.6558333333333333 -2.513854166666667 2.933020833333334 -4.827500000000001 2.933020833333334 -3.3323958333333334 0 -5.586875000000001 -2.255520833333333 -5.586875000000001 -5.526770833333334 0 -3.2514583333333333 2.334375 -5.526666666666667 5.586875000000001 -5.526666666666667 2.2939583333333333 -0.0046875 4.2091666666666665 1.2723958333333334 4.887604166666667 2.9470833333333335Zm3.2496875000000003 -6.8603125v8.100729166666667l3.890625 -3.810729166666667h3.4714583333333335l-4.4695833333333335 4.329375000000001 4.569166666666667 6.0408333333333335h-3.171666666666667l-3.213020833333333 -4.290000000000001 -1.0769791666666668 1.03375v3.25625h-2.5937500000000004V43.34604166666667h2.5937500000000004Zm10.565312500000001 0v5.3847916666666675c0.7979166666666667 -0.8973958333333334 1.935416666666667 -1.4763541666666669 3.452291666666667 -1.4763541666666669 3.0721875 0 5.226354166666667 2.394479166666667 5.226354166666667 5.5671875 0 3.1321875 -2.154166666666667 5.4861458333333335 -5.246250000000001 5.4861458333333335 -1.516875 0 -2.6536458333333335 -0.5788541666666667 -3.4515625 -1.47625v1.1746875h-2.5741666666666667V43.34604166666667h2.5933333333333333Zm2.9336458333333337 12.609583333333335c1.7548958333333335 0 3.052291666666667 -1.2573958333333335 3.052291666666667 -3.1321875 0 -1.9152083333333334 -1.2973958333333335 -3.2119791666666666 -3.052291666666667 -3.2119791666666666 -1.6561458333333337 0 -3.013229166666667 1.2564583333333335 -3.013229166666667 3.2119791666666666 0 1.9133333333333336 1.3616666666666666 3.1304166666666666 3.013229166666667 3.1304166666666666v0.0017708333333333335Zm6.442604166666667 -12.609583333333335h2.693541666666667v2.5937500000000004h-2.693541666666667v-2.5937500000000004Zm2.6315625000000002 4.290000000000001v10.370208333333332h-2.5940625v-10.372083333333334l2.5940625 0.0018750000000000001Zm-37.0134375 -0.03291666666666667 0.0010416666666666669 10.403020833333334h-2.500729166666667l0.03947916666666667 -1.300625c-0.7996875000000001 0.9604166666666668 -1.9801041666666668 1.597604166666667 -3.560729166666667 1.597604166666667 -3.10125 0 -5.262604166666668 -2.360625 -5.262604166666668 -5.501354166666667 0 -3.1810416666666668 2.1407291666666666 -5.582083333333333 5.241979166666667 -5.582083333333333 1.5035416666666668 0 2.6406250000000004 0.5797916666666667 3.4403125000000006 1.4604166666666667V47.603125h2.60125Zm-5.543541666666667 8.340312500000001c1.6605208333333334 0 3.041041666666667 -1.221666666666667 3.041041666666667 -3.1407291666666666 0 -1.9612500000000002 -1.3805208333333334 -3.2214583333333335 -3.041041666666667 -3.2214583333333335 -1.740416666666667 0 -3.041041666666667 1.300625 -3.041041666666667 3.2214583333333335 0.007500000000000001 1.8833333333333335 1.3034375000000002 3.1435416666666667 3.04375 3.1435416666666667l-0.0027083333333333334 -0.0028125000000000003Z" stroke-width="1"></path><path fill="#FF364E" d="m12.534791666666669 46.79458333333334 3.9789583333333334 2.0082291666666667c0.3385416666666667 0.16958333333333334 0.6233333333333334 0.43000000000000005 0.8226041666666667 0.7520833333333333 0.17062500000000003 0.2760416666666667 0.27260416666666665 0.5882291666666667 0.2984375 0.9102083333333334l0.006562500000000001 0.16177083333333334v4.597291666666667c0 0.8126041666666668 -0.3227083333333334 1.5918750000000002 -0.8971875 2.1665625 -0.5334375 0.5336458333333334 -1.2434375 0.8502083333333335 -1.9928125 0.8930208333333334l-0.17354166666666668 0.005H1.0519479166666668l5.101916666666668 -5.108541666666667h6.380927083333334v-6.385625000000001Zm5.097291666666667 -5.1076041666666665 -5.097291666666667 5.1076041666666665 -6.3808541666666665 0 -0.00007291666666666666 6.385625000000001 -3.9891875 -2.002604166666667c-0.33773958333333337 -0.17041666666666666 -0.6215520833333334 -0.4313541666666667 -0.8198229166666667 -0.7536458333333335 -0.16994791666666667 -0.27614583333333337 -0.2713020833333334 -0.5880208333333333 -0.2967916666666667 -0.9097916666666667L1.0416666666666667 49.35260416666667V44.75625c-0.0006072916666666667 -0.4028125 0.07820833333333334 -0.8018750000000001 0.23193750000000002 -1.1741666666666668 0.15372916666666667 -0.37239583333333337 0.3793645833333334 -0.7107291666666667 0.6639895833333335 -0.9958333333333333 0.2846354166666667 -0.28510416666666666 0.6226770833333334 -0.5112500000000001 0.9947916666666667 -0.6655208333333335 0.31009375000000006 -0.12854166666666667 0.6387708333333334 -0.20520833333333335 0.9728437500000001 -0.22708333333333336l0.20097916666666668 -0.006666666666666667H17.632083333333334Z" stroke-width="1"></path></svg>