<svg xmlns="http://www.w3.org/2000/svg" fill="none" viewBox="-0.5 -0.5 70 70" id="Stackbit-Icon--Streamline-Svg-Logos.svg" height="70" width="70"><desc>Stackbit Icon Streamline Icon: https://streamlinehq.com</desc><path fill="#FF364E" d="m47.495574999999995 21.504496875 16.19271875 8.172834375c1.377915625 0.690071875 2.5368999999999997 1.749796875 3.3475781249999996 3.060796875 0.6946 1.12340625 1.109678125 2.3936531249999997 1.214903125 3.704221875l0.026665625000000002 0.6582312499999999v18.7090625c0 3.3071125 -1.31344375 6.478453125000001 -3.651465625 8.817409375 -2.170984375 2.171559375 -5.0602875 3.459990625 -8.1098 3.633928125L55.809859375 68.28125H0.764793125L21.527640625 47.491621875h25.967934375v-25.987125ZM68.23941875 0.71875 47.495862499999994 21.50456875H21.527928125v25.987053125000003L5.2931840625 39.341715625c-1.3744871875 -0.69359375 -2.5294896875 -1.7551875000000001 -3.3363799999999997 -3.0667625 -0.6916171875 -1.123909375 -1.1040790625 -2.39329375 -1.2078090625 -3.7027125l-0.026018750000000004 -0.657584375V13.20933125c-0.002486875 -1.6393250000000001 0.318248125 -3.2631968749999998 0.9438696875 -4.778465625 0.62562875 -1.5153262500000002 1.5438678125 -2.8924296875000004 2.7022053125000003 -4.0525496875C5.52738875 3.218203125 6.903090625 2.2978581250000003 8.417425 1.6699078125c1.26198125 -0.5232859375 2.599575 -0.8349575 3.9591625 -0.9243125L13.194453125 0.71875h55.044965624999996Z" stroke-width="1"></path></svg>