<svg xmlns="http://www.w3.org/2000/svg" fill="none" viewBox="-0.5 -0.5 50 50" id="Stackbit--Streamline-Svg-Logos.svg" height="50" width="50"><desc>Stackbit Streamline Icon: https://streamlinehq.com</desc><path fill="#000022" d="M14.509308333333337 21.05167604166667c1.335403125 0 2.2665052083333337 0.6391437500000001 2.630279166666667 1.5141000000000002l-1.0466604166666669 1.0484979166666668c0 -0.828865625 -0.6060177083333335 -1.4173760416666668 -1.58361875 -1.4173760416666668 -0.7920135416666668 0 -1.358882291666667 0.3614770833333334 -1.358882291666667 0.9577968750000002 0 0.5428791666666668 0.45600625000000006 0.7628177083333334 1.0683020833333334 0.9167083333333335l0.16307812500000002 0.03884270833333334 0.16899895833333337 0.03685208333333334 0.6209218750000001 0.12801250000000003 0.18094270833333334 0.04047604166666667 0.18038125000000002 0.04410000000000001c0.9583072916666667 0.2464291666666667 1.8409197916666669 0.6894708333333335 1.8409197916666669 2.021147916666667 0 1.3979802083333337 -1.222141666666667 2.1899937500000006 -2.7863645833333335 2.1899937500000006 -1.3110052083333334 0 -2.4023270833333337 -0.5778427083333335 -2.8121406250000005 -1.6452260416666669l1.1111260416666668 -1.1116364583333336c0 0.9872989583333335 0.6447072916666667 1.611691666666667 1.7010145833333334 1.611691666666667 0.828865625 0 1.4468270833333337 -0.38128125000000007 1.4468270833333337 -0.9969458333333335 0 -0.5815687500000001 -0.5109781250000002 -0.7988020833333335 -1.1774291666666667 -0.9548875000000001l-0.16966250000000002 -0.037975 -0.6269958333333334 -0.12785937500000003 -0.27526770833333336 -0.060433333333333346 -0.18262708333333336 -0.04476354166666667c-0.9390135416666667 -0.24285625000000002 -1.7915114583333336 -0.6788541666666668 -1.7915114583333336 -1.9615312500000002 0 -1.3197333333333334 1.2123927083333337 -2.1895854166666666 2.69836875 -2.1895854166666666Zm4.8438541666666675 0.3532593750000001v1.9340197916666668h1.427482291666667v1.0780000000000003h-1.427482291666667v2.268291666666667c0 0.5765156250000001 0.20534062500000003 0.7234135416666668 0.6944218750000001 0.7234135416666668 0.22662500000000005 -0.007298958333333334 0.4522802083333334 -0.033483333333333344 0.6745666666666669 -0.07829791666666669v1.1051541666666669c-0.11724270833333335 0.04542708333333334 -0.3823020833333334 0.08248333333333334 -0.5951968750000001 0.10213437500000001l-0.14679583333333338 0.011331250000000003c-0.04358958333333334 0.0026031250000000004 -0.08079895833333334 0.00398125 -0.10851458333333336 0.00398125 -1.1636479166666667 0 -1.78941875 -0.4890302083333334 -1.78941875 -1.691316666666667v-2.444691666666667h-0.9209447916666668v-1.0761625000000001h0.9209447916666668V22.67679166666667l1.2709375000000003 -1.2718562500000001Zm27.708938541666672 0v1.9340197916666668h1.4273802083333336v1.0780000000000003h-1.4273802083333336v2.268291666666667c0 0.5765156250000001 0.2053916666666667 0.7234135416666668 0.6941666666666668 0.7234135416666668 0.22677812500000002 -0.007298958333333334 0.45243333333333335 -0.033483333333333344 0.6747197916666668 -0.07829791666666669v1.1051541666666669c-0.11719166666666668 0.04542708333333334 -0.38235312500000007 0.08248333333333334 -0.5952479166666667 0.10213437500000001l-0.14679583333333338 0.011331250000000003c-0.04358958333333334 0.0026031250000000004 -0.08079895833333334 0.00398125 -0.10846354166666668 0.00398125 -1.163494791666667 0 -1.7894697916666669 -0.4890302083333334 -1.7894697916666669 -1.691316666666667v-2.444691666666667h-0.9209958333333335v-1.0761625000000001h0.9209958333333335V22.67679166666667l1.2710906250000003 -1.2718562500000001Zm-15.2047 3.1961781250000003 -1.1244479166666668 0.6548135416666667c-0.11698750000000001 -0.5770260416666668 -0.6447072916666667 -0.9384520833333335 -1.2704781250000001 -0.9384520833333335 -0.828865625 0 -1.417784375 0.5668177083333334 -1.417784375 1.5444187500000002 0 0.9776010416666668 0.5769239583333334 1.5481447916666669 1.417784375 1.5481447916666669 0.6059666666666668 0 1.1240395833333334 -0.40108541666666675 1.2704781250000001 -0.9094604166666668l1.0949968750000003 0.6354687500000001c-0.3421322916666667 0.8113583333333334 -1.2317885416666667 1.4371802083333336 -2.3654750000000004 1.4371802083333336 -1.6328739583333336 0 -2.7375687500000008 -1.1052052083333335 -2.7375687500000008 -2.708117708333334 0 -1.5932145833333335 1.1438437500000003 -2.7080666666666673 2.7375687500000008 -2.7080666666666673 1.1240395833333334 -0.0022968750000000003 2.062491666666667 0.6234739583333334 2.394926041666667 1.4440708333333336Zm1.5923468750000003 -3.3615531250000004v3.9693572916666673l1.9064062500000003 -1.867257291666667h1.7010145833333334l-2.190095833333334 2.12139375 2.238891666666667 2.9600083333333336h-1.5541166666666668l-1.5743802083333334 -2.1021000000000005 -0.5277197916666667 0.5065375000000001v1.5955625000000002h-1.2709375000000003V21.23956041666667h1.2709375000000003Zm5.177003125000001 0v2.6385479166666674c0.3909791666666667 -0.43972395833333344 0.9483541666666668 -0.7234135416666668 1.691622916666667 -0.7234135416666668 1.5053718750000002 0 2.560913541666667 1.173294791666667 2.560913541666667 2.7279218750000003 0 1.5347718750000001 -1.0555416666666668 2.688211458333334 -2.5706625000000005 2.688211458333334 -0.74326875 0 -1.3002864583333336 -0.2836385416666667 -1.6912656250000002 -0.7233625000000001v0.575596875h-1.2613416666666668V21.23956041666667h1.2707333333333335Zm1.4374864583333335 6.178695833333334c0.8598989583333335 0 1.495622916666667 -0.6161239583333334 1.495622916666667 -1.5347718750000001 0 -0.9384520833333335 -0.6357239583333335 -1.5738697916666669 -1.495622916666667 -1.5738697916666669 -0.8115114583333335 0 -1.476482291666667 0.6156645833333334 -1.476482291666667 1.5738697916666669 0 0.9375333333333334 0.6672166666666667 1.5339041666666668 1.476482291666667 1.5339041666666668v0.0008677083333333334Zm3.156876041666667 -6.178695833333334h1.3198354166666668v1.2709375000000003h-1.3198354166666668v-1.2709375000000003Zm1.2894656250000003 2.1021000000000005v5.081402083333334h-1.2710906250000003v-5.082320833333334l1.2710906250000003 0.0009187500000000001Zm-18.136584375 -0.01612916666666667 0.0005104166666666667 5.097480208333335h-1.2253572916666668l0.01934479166666667 -0.6373062500000001c-0.3918468750000001 0.47060416666666677 -0.9702510416666669 0.7828260416666668 -1.744757291666667 0.7828260416666668 -1.5196125 0 -2.578676041666667 -1.1567062500000003 -2.578676041666667 -2.695663541666667 0 -1.5587104166666668 1.0489572916666667 -2.7352208333333334 2.568569791666667 -2.7352208333333334 0.7367354166666668 0 1.2939062500000003 0.28409791666666667 1.6857531250000004 0.7156041666666667V23.32553125h1.2746125000000001Zm-2.716335416666667 4.086753125c0.8136552083333335 0 1.4901104166666668 -0.5986166666666668 1.4901104166666668 -1.5389572916666667 0 -0.9610125000000002 -0.6764552083333334 -1.5785145833333336 -1.4901104166666668 -1.5785145833333336 -0.8528041666666668 0 -1.4901104166666668 0.6373062500000001 -1.4901104166666668 1.5785145833333336 0.0036750000000000003 0.9228333333333335 0.6386843750000001 1.5403354166666667 1.4914375000000002 1.5403354166666667l-0.0013270833333333335 -0.0013781250000000002Z" stroke-width="1"></path><path fill="#FF364E" d="m6.142047916666668 22.929345833333336 1.9496895833333336 0.9840322916666668c0.1658854166666667 0.08309583333333334 0.3054333333333334 0.21070000000000003 0.4030760416666667 0.36852083333333335 0.08360625000000001 0.1352604166666667 0.13357604166666667 0.2882322916666667 0.146234375 0.4460020833333334l0.0032156250000000006 0.07926770833333334v2.252672916666667c0 0.39817604166666676 -0.15812708333333336 0.7800187500000001 -0.43962187500000005 1.0616156250000002 -0.26138437500000006 0.26148645833333334 -0.6092843750000001 0.41660208333333343 -0.9764781250000002 0.4375802083333334l-0.08503541666666668 0.0024500000000000004H0.5154544791666668l2.499939166666667 -2.503185416666667h3.126654270833334v-3.1289562500000008Zm2.4976729166666667 -2.502726041666667 -2.4976729166666667 2.502726041666667 -3.1266185416666668 0 -0.00003572916666666667 3.1289562500000008 -1.9547018750000003 -0.9812760416666668c-0.16549239583333336 -0.08350416666666667 -0.3045605208333334 -0.2113635416666667 -0.40171322916666674 -0.3692864583333334 -0.08327447916666668 -0.13531145833333336 -0.13293802083333336 -0.28813020833333336 -0.14542791666666668 -0.4457979166666667L0.5104166666666667 24.18277604166667V21.930562500000004c-0.0002975729166666667 -0.19737812500000002 0.03832208333333333 -0.3929187500000001 0.11364937500000001 -0.5753416666666668 0.07532729166666667 -0.18247395833333335 0.18588864583333337 -0.34825729166666675 0.3253548958333334 -0.4879583333333334 0.13947135416666667 -0.1397010416666667 0.3051117708333334 -0.2505125 0.4874479166666667 -0.3261052083333334 0.15194593750000002 -0.06298541666666667 0.31299770833333335 -0.10055208333333335 0.4766934375000001 -0.11127083333333335l0.09847979166666668 -0.0032666666666666673H8.639720833333335Z" stroke-width="1"></path></svg>