<svg xmlns="http://www.w3.org/2000/svg" fill="none" viewBox="-0.5 -0.5 40 40" id="Stackbit-Icon--Streamline-Svg-Logos.svg" height="40" width="40"><desc>Stackbit Icon Streamline Icon: https://streamlinehq.com</desc><path fill="#FF364E" d="m26.845325 12.154715625 9.15240625 4.619428125000001c0.778821875 0.390040625 1.4339 0.989015625 1.892109375 1.7300156249999998 0.3926 0.63496875 0.6272093750000001 1.352934375 0.686684375 2.093690625l0.015071875 0.37204375v10.5746875c0 1.8692375 -0.74238125 3.661734375 -2.0638718750000002 4.983753125 -1.227078125 1.227403125 -2.8601625 1.9556468750000002 -4.5838 2.0539593750000003L31.544703124999998 38.59375H0.432274375L12.167796875 26.843090625h14.677528125v-14.688374999999999ZM38.57010625 0.40625 26.845487499999997 12.15475625H12.167959374999999v14.688334375L2.9917996875 22.236621875c-0.7768840625000001 -0.39203125 -1.4297115624999999 -0.9920625000000001 -1.88578 -1.7333875 -0.39091406250000005 -0.6352531250000001 -0.6240446875000001 -1.35273125 -0.6826746875 -2.0928375l-0.01470625 -0.371678125V7.46614375c-0.001405625 -0.926575 0.179879375 -1.844415625 0.5334915625 -2.700871875 0.35361625 -0.85648875 0.8726209375 -1.6348515625000002 1.5273334375 -2.2905715625C3.1241762499999997 1.818984375 3.901746875 1.2987893750000001 4.757675 0.9438609375c0.7132937500000001 -0.29577031249999997 1.469325 -0.47193250000000003 2.2377875 -0.5224375L7.457734375000001 0.40625h31.112371875Z" stroke-width="1"></path></svg>