<?xml version="1.0" encoding="UTF-8"?>
<svg xmlns="http://www.w3.org/2000/svg" xmlns:xlink="http://www.w3.org/1999/xlink" width="80px" height="73px" viewBox="0 0 80 73" version="1.1">
<g id="surface1">
<path style=" stroke:none;fill-rule:nonzero;fill:rgb(0%,0%,0%);fill-opacity:1;" d="M 37.679688 4.136719 C 34.160156 4.988281 31.121094 7.351562 29.492188 10.441406 C 28.960938 11.460938 28.535156 12.480469 28.535156 12.722656 C 28.535156 12.960938 28.425781 13.148438 28.292969 13.148438 C 27.730469 13.148438 27.492188 15.054688 27.601562 18.652344 C 27.652344 20.71875 27.730469 22.679688 27.789062 23.027344 C 27.867188 23.5625 27.574219 23.726562 24.398438 24.800781 C 19.46875 26.460938 9.574219 30.433594 7.09375 31.75 C 3.332031 33.734375 2.105469 35.453125 3.519531 36.769531 C 4.210938 37.414062 7.175781 38.40625 10.269531 39.023438 C 11.894531 39.34375 18.640625 40.257812 19.46875 40.257812 C 19.546875 40.257812 19.597656 42.214844 19.597656 44.605469 C 19.597656 49.679688 19.972656 51.289062 22.054688 55.371094 C 23.332031 57.863281 26.160156 61.191406 27.917969 62.289062 L 28.851562 62.882812 L 27.386719 63.6875 C 24.480469 65.242188 22.269531 68.011719 22.933594 69.242188 C 23.332031 69.96875 24.429688 69.941406 28.082031 69.082031 C 31.972656 68.195312 33.890625 68.273438 38.796875 69.617188 C 43.359375 70.851562 44.855469 70.824219 50 69.378906 C 53.066406 68.492188 53.707031 68.410156 55.601562 68.519531 C 56.773438 68.601562 58.796875 68.921875 60.082031 69.242188 C 63.066406 69.96875 64.375 69.886719 64.480469 69.027344 C 64.640625 67.980469 64.027344 66.90625 62.375 65.378906 C 60.828125 63.929688 57.46875 61.996094 56.503906 61.996094 C 56.214844 61.996094 56 61.96875 56 61.914062 C 56 61.886719 56.933594 60.898438 58.082031 59.6875 C 60.589844 57.058594 62.425781 54 63.253906 51.128906 C 63.570312 49.945312 63.867188 48.925781 63.890625 48.898438 C 63.945312 48.847656 64.960938 49.167969 66.183594 49.625 C 77.789062 53.890625 79.121094 51.742188 71.785156 40.660156 C 67.625 34.351562 61.574219 27.082031 58.1875 24.261719 L 56.398438 22.785156 L 56.480469 20.15625 C 56.773438 12.078125 52.71875 5.929688 45.945312 4.160156 C 44.105469 3.679688 39.625 3.679688 37.679688 4.136719 Z M 45.28125 5.769531 C 48.746094 6.601562 51.707031 8.882812 53.039062 11.726562 C 53.519531 12.804688 53.757812 13.042969 54.160156 12.960938 C 55.039062 12.722656 54.71875 13.394531 53.570312 14.144531 C 52.585938 14.816406 52.457031 14.816406 52.242188 14.414062 C 51.679688 13.394531 46.160156 14.226562 43.519531 15.699219 C 42.882812 16.074219 42 16.371094 41.597656 16.371094 C 41.203125 16.371094 40.320312 16.074219 39.679688 15.699219 C 37.042969 14.226562 31.523438 13.394531 30.960938 14.414062 C 30.746094 14.839844 30.640625 14.816406 29.785156 14.226562 C 29.09375 13.742188 28.910156 13.472656 29.09375 13.230469 C 29.253906 13.066406 29.519531 12.960938 29.679688 13.042969 C 29.867188 13.097656 30.269531 12.585938 30.613281 11.832031 C 32.824219 6.949219 39.171875 4.320312 45.28125 5.769531 Z M 54.933594 15.027344 C 54.933594 15.753906 54.773438 15.914062 53.734375 16.371094 C 52.957031 16.71875 52.347656 17.230469 51.972656 17.824219 C 51.171875 19.214844 48.347656 20.398438 45.789062 20.398438 C 44.132812 20.398438 43.679688 20.128906 43.066406 18.789062 C 42.242188 16.933594 41.015625 17.042969 39.972656 19.082031 C 39.519531 19.96875 39.335938 20.128906 38.214844 20.289062 C 35.734375 20.664062 32.160156 19.402344 31.253906 17.847656 C 30.960938 17.367188 30.269531 16.746094 29.707031 16.476562 C 28.933594 16.101562 28.640625 15.78125 28.585938 15.21875 C 28.476562 14.382812 28.746094 14.308594 29.894531 14.921875 C 30.640625 15.296875 30.746094 15.296875 31.226562 14.867188 C 31.628906 14.492188 32.023438 14.4375 33.382812 14.570312 C 35.625 14.789062 37.976562 15.429688 39.546875 16.238281 C 41.171875 17.070312 42.082031 17.070312 43.679688 16.238281 C 45.25 15.40625 48.773438 14.492188 50.34375 14.492188 C 51.089844 14.492188 51.734375 14.652344 52.023438 14.921875 C 52.480469 15.324219 52.585938 15.324219 53.382812 14.816406 C 54.613281 14.039062 54.933594 14.089844 54.933594 15.027344 Z M 55.464844 16.746094 C 55.464844 16.960938 55.359375 17.203125 55.226562 17.285156 C 55.121094 17.367188 54.933594 18.542969 54.855469 19.910156 C 54.75 21.28125 54.613281 22.648438 54.535156 22.945312 C 54.398438 23.351562 54.585938 23.617188 55.25 23.992188 C 57.730469 25.46875 65.011719 33.792969 69.730469 40.554688 C 71.949219 43.695312 74.667969 48.765625 74.667969 49.703125 C 74.667969 50.214844 74.71875 50.242188 74.933594 49.917969 C 75.09375 49.679688 75.199219 49.648438 75.199219 49.835938 C 75.199219 50.375 74.855469 50.429688 73.464844 50.082031 C 71.171875 49.492188 70.375 49.382812 70.53125 49.648438 C 70.800781 50.054688 70.480469 50 67.148438 48.953125 L 64 47.933594 L 63.332031 48.578125 L 62.667969 49.195312 L 62.636719 47.878906 C 62.613281 47.15625 62.5625 46.804688 62.507812 47.101562 C 62.457031 47.398438 62.269531 48.308594 62.105469 49.113281 C 61.734375 50.964844 60.402344 53.917969 58.984375 56.011719 C 57.542969 58.132812 54 61.460938 53.171875 61.460938 C 52.1875 61.460938 50.238281 62.183594 47.332031 63.605469 C 44.027344 65.242188 43.359375 65.351562 41.972656 64.496094 C 40.320312 63.449219 37.304688 62.101562 35.789062 61.726562 C 34.640625 61.429688 34.027344 61.40625 32.398438 61.699219 C 30.082031 62.078125 29.945312 62.019531 27.09375 59.3125 C 22.773438 55.207031 20.851562 49.867188 21.148438 42.804688 C 21.226562 41.035156 21.226562 39.855469 21.148438 40.203125 C 21.039062 40.820312 21.015625 40.820312 20.105469 39.882812 C 19.121094 38.863281 18.878906 38.808594 15.652344 38.835938 C 14.933594 38.835938 14.503906 38.753906 14.691406 38.648438 C 14.90625 38.488281 14.855469 38.40625 14.503906 38.324219 C 13.867188 38.191406 15.757812 36.925781 20 34.675781 C 24.71875 32.179688 25.039062 32.207031 23.066406 34.757812 C 21.546875 36.742188 20.695312 38.511719 20.960938 39.132812 C 21.089844 39.476562 21.203125 39.371094 21.335938 38.648438 C 21.523438 37.628906 22.398438 36.207031 24.375 33.816406 C 25.09375 32.957031 25.496094 32.257812 25.359375 32.125 C 24.855469 31.617188 21.335938 33.199219 16.503906 36.125 C 14.933594 37.0625 13.382812 37.839844 13.09375 37.839844 C 12.160156 37.839844 8.535156 37.0625 6.746094 36.472656 C 5.8125 36.179688 4.960938 35.992188 4.824219 36.074219 C 4.691406 36.148438 4.503906 36.042969 4.429688 35.828125 C 4.242188 35.292969 5.011719 34.808594 9.730469 32.476562 C 13.890625 30.40625 15.144531 29.925781 23.734375 26.867188 C 28.691406 25.121094 29.730469 24.636719 29.707031 24.234375 C 29.679688 23.964844 29.546875 22.976562 29.359375 22.007812 C 29.199219 21.039062 29.066406 19.699219 29.066406 18.976562 C 29.066406 18.277344 28.960938 17.710938 28.828125 17.710938 C 28.691406 17.710938 28.535156 17.472656 28.453125 17.148438 C 28.320312 16.664062 28.402344 16.613281 29.015625 16.746094 C 29.410156 16.851562 29.972656 17.230469 30.269531 17.605469 C 31.574219 19.269531 32.210938 19.78125 33.679688 20.238281 L 35.199219 20.71875 L 34.5625 21.226562 C 34.210938 21.496094 33.839844 22.035156 33.757812 22.410156 C 33.519531 23.320312 34.027344 25.121094 34.824219 26.355469 C 35.570312 27.507812 35.601562 27.644531 35.121094 27.644531 C 34.078125 27.644531 30.878906 29.871094 28.910156 31.992188 C 21.8125 39.558594 22.851562 52.226562 31.121094 58.617188 C 34.242188 61.03125 39.148438 62.558594 43.066406 62.371094 C 46.773438 62.183594 51.171875 60.546875 53.382812 58.507812 C 54.027344 57.914062 54.613281 57.433594 54.71875 57.433594 C 55.011719 57.433594 58.132812 53.140625 58.558594 52.117188 C 59.8125 49.140625 60.132812 47.367188 60.105469 43.613281 C 60.054688 40.179688 59.410156 37.949219 57.625 34.890625 C 55.789062 31.804688 51.707031 28.289062 49.148438 27.5625 C 48.507812 27.402344 48 27.1875 48 27.082031 C 48 26.972656 48.292969 26.355469 48.664062 25.738281 C 49.761719 23.777344 49.359375 21.203125 47.976562 21.203125 C 47.175781 21.203125 47.601562 20.746094 48.585938 20.53125 C 50.402344 20.128906 51.734375 19.351562 52.320312 18.355469 C 52.667969 17.765625 53.308594 17.175781 53.972656 16.882812 C 55.308594 16.261719 55.464844 16.261719 55.464844 16.746094 Z M 42.53125 18.789062 C 42.746094 19.214844 42.933594 19.617188 42.933594 19.699219 C 42.933594 19.753906 42.320312 19.859375 41.597656 19.910156 C 40.851562 19.941406 40.269531 19.96875 40.269531 19.910156 C 40.269531 19.886719 40.453125 19.429688 40.640625 18.921875 C 41.148438 17.710938 41.949219 17.660156 42.53125 18.789062 Z M 45.386719 21.121094 C 47.386719 21.363281 48.535156 22.167969 48.535156 23.296875 C 48.535156 25.011719 46.398438 27.617188 44.027344 28.824219 C 41.546875 30.113281 39.148438 29.601562 36.828125 27.320312 C 34.800781 25.335938 34.078125 22.867188 35.199219 21.738281 C 35.625 21.308594 36.078125 21.203125 37.414062 21.203125 C 38.320312 21.203125 39.253906 21.070312 39.46875 20.933594 C 39.867188 20.695312 42.347656 20.746094 45.386719 21.121094 Z M 29.335938 24.046875 C 29.335938 24.398438 28.265625 25.011719 28.050781 24.824219 C 28 24.773438 28.160156 24.421875 28.453125 24.074219 C 28.960938 23.375 29.335938 23.375 29.335938 24.046875 Z M 49.679688 28.851562 C 55.683594 31.804688 59.171875 37.546875 59.199219 44.417969 C 59.199219 47.367188 58.722656 49.382812 57.363281 52.199219 C 55.414062 56.199219 51.972656 59.148438 47.492188 60.761719 C 45.4375 61.488281 44.878906 61.566406 42.132812 61.566406 C 39.546875 61.566406 38.722656 61.429688 36.90625 60.84375 C 28.722656 58.105469 23.652344 49.761719 25.175781 41.382812 C 26.109375 36.097656 29.679688 31.265625 34.453125 28.824219 C 35.945312 28.070312 36.347656 28.019531 36.828125 28.609375 C 37.332031 29.230469 38.960938 30.007812 40.402344 30.328125 C 42.023438 30.703125 43.945312 30.164062 45.757812 28.878906 C 46.480469 28.367188 47.226562 27.9375 47.414062 27.9375 C 47.601562 27.914062 48.640625 28.339844 49.679688 28.851562 Z M 55.464844 61.191406 C 55.175781 61.726562 54.398438 61.945312 54.398438 61.460938 C 54.398438 61.21875 55.144531 60.679688 55.546875 60.652344 C 55.652344 60.652344 55.625 60.898438 55.464844 61.191406 Z M 30.054688 62.371094 C 29.894531 62.910156 29.410156 62.800781 29.148438 62.183594 C 28.851562 61.566406 28.878906 61.539062 29.492188 61.835938 C 29.839844 61.996094 30.082031 62.238281 30.054688 62.371094 Z M 36.933594 63.335938 C 40.480469 64.570312 44 67.175781 44 68.570312 C 44 69.511719 43.382812 69.457031 38.292969 68.167969 C 33.199219 66.882812 31.917969 66.851562 27.519531 67.875 C 25.734375 68.304688 24.210938 68.542969 24.132812 68.4375 C 23.972656 68.167969 26.617188 65.671875 28 64.789062 C 31.066406 62.855469 34.105469 62.371094 36.933594 63.335938 Z M 57.945312 63.980469 C 59.148438 64.546875 60.640625 65.566406 61.597656 66.449219 C 63.441406 68.167969 63.679688 68.8125 62.347656 68.410156 C 61.203125 68.085938 55.894531 67.363281 54.503906 67.363281 C 53.921875 67.363281 52.1875 67.742188 50.695312 68.195312 C 49.171875 68.652344 47.363281 69.058594 46.640625 69.132812 C 45.496094 69.214844 45.332031 69.164062 45.332031 68.707031 C 45.332031 68.4375 45.199219 67.875 45.011719 67.496094 C 44.71875 66.851562 44.773438 66.71875 45.496094 66.15625 C 46.503906 65.296875 49.039062 63.957031 50.746094 63.3125 C 52.90625 62.507812 55.359375 62.722656 57.945312 63.980469 Z M 44.535156 65.730469 C 44.535156 66.449219 43.867188 66.613281 43.332031 66.023438 C 42.933594 65.566406 42.933594 65.511719 43.382812 65.40625 C 44.316406 65.164062 44.535156 65.214844 44.535156 65.730469 Z M 44.535156 65.730469 "/>
<path style=" stroke:none;fill-rule:nonzero;fill:rgb(0%,0%,0%);fill-opacity:1;" d="M 61.867188 36.074219 C 61.867188 36.285156 62.105469 37.464844 62.375 38.699219 C 63.121094 41.894531 63.308594 43.769531 62.957031 44.953125 C 62.800781 45.570312 62.773438 46.109375 62.90625 46.246094 C 63.066406 46.402344 63.226562 45.839844 63.359375 44.929688 C 63.519531 43.53125 63.332031 41.382812 62.773438 38.160156 C 62.507812 36.714844 63.121094 37.144531 64.640625 39.507812 C 66.183594 41.945312 69.171875 47.316406 69.597656 48.414062 C 69.730469 48.789062 69.972656 49.113281 70.132812 49.113281 C 70.269531 49.113281 70.402344 49.085938 70.402344 49.035156 C 70.402344 48.980469 69.546875 47.316406 68.507812 45.355469 C 65.121094 38.863281 61.867188 34.324219 61.867188 36.074219 Z M 61.867188 36.074219 "/>
<path style=" stroke:none;fill-rule:nonzero;fill:rgb(0%,0%,0%);fill-opacity:1;" d="M 45.601562 23.269531 C 45.601562 23.726562 45.496094 24.421875 45.359375 24.773438 C 44.988281 25.714844 43.253906 27.347656 42 27.9375 C 40.773438 28.503906 41.171875 28.636719 42.480469 28.101562 C 44.640625 27.1875 46.640625 24.152344 45.921875 22.917969 C 45.652344 22.460938 45.625 22.519531 45.601562 23.269531 Z M 45.601562 23.269531 "/>
<path style=" stroke:none;fill-rule:nonzero;fill:rgb(0%,0%,0%);fill-opacity:1;" d="M 38.796875 31.316406 C 38.027344 31.511719 35.734375 32.527344 35.734375 32.664062 C 35.734375 32.742188 36.054688 33.386719 36.480469 34.113281 C 37.09375 35.265625 37.148438 35.480469 36.800781 35.695312 C 36.109375 36.148438 35.867188 35.992188 35.386719 34.757812 C 35.09375 34.085938 34.75 33.546875 34.5625 33.546875 C 34.210938 33.546875 32.507812 35.292969 31.253906 36.957031 L 30.402344 38.054688 L 31.652344 38.539062 C 33.308594 39.132812 33.441406 39.289062 33.09375 39.960938 C 32.800781 40.5 32.746094 40.5 32 40.121094 C 29.972656 39.074219 29.945312 39.074219 29.492188 40.605469 C 29.28125 41.382812 29.015625 42.460938 28.910156 43.023438 L 28.746094 44.039062 L 31.226562 43.988281 L 33.734375 43.933594 L 33.816406 44.660156 L 33.890625 45.355469 L 28.746094 45.355469 L 28.910156 46.351562 C 29.015625 46.914062 29.304688 48.011719 29.519531 48.789062 C 30 50.351562 30.082031 50.351562 32.082031 49.328125 L 33.066406 48.820312 L 33.308594 49.4375 C 33.601562 50.1875 33.546875 50.242188 31.917969 50.832031 L 30.640625 51.316406 L 31.546875 52.441406 C 32.054688 53.03125 33.09375 54.078125 33.890625 54.722656 L 35.332031 55.902344 L 35.945312 54.535156 C 36.558594 53.164062 36.878906 52.925781 37.542969 53.351562 C 37.8125 53.542969 37.730469 53.867188 37.199219 54.832031 C 36.800781 55.527344 36.558594 56.199219 36.640625 56.335938 C 36.773438 56.546875 41.066406 57.703125 41.707031 57.703125 C 41.785156 57.703125 41.867188 56.605469 41.867188 55.289062 C 41.867188 52.894531 41.867188 52.871094 42.53125 52.871094 C 43.199219 52.871094 43.199219 52.894531 43.199219 55.289062 C 43.199219 56.605469 43.308594 57.703125 43.414062 57.703125 C 43.972656 57.703125 47.867188 56.605469 48.082031 56.386719 C 48.238281 56.226562 48.050781 55.632812 47.601562 54.882812 C 47.199219 54.1875 46.933594 53.621094 46.988281 53.570312 C 47.011719 53.542969 47.28125 53.382812 47.519531 53.164062 C 47.917969 52.871094 48.050781 52.976562 48.664062 54.1875 C 49.039062 54.9375 49.441406 55.554688 49.574219 55.554688 C 49.867188 55.554688 52.292969 52.976562 52.933594 51.984375 C 53.496094 51.101562 53.382812 50.964844 51.546875 50.402344 C 50.425781 50.082031 50.238281 49.835938 50.558594 49.035156 C 50.695312 48.683594 50.984375 48.738281 52.398438 49.382812 L 54.078125 50.132812 L 54.503906 48.765625 C 54.773438 47.988281 55.039062 46.777344 55.121094 46.082031 L 55.28125 44.765625 L 52.773438 44.875 C 50.292969 44.953125 50.269531 44.953125 50.269531 44.308594 C 50.269531 43.695312 50.320312 43.695312 52.800781 43.636719 L 55.332031 43.613281 L 55.25 42.671875 C 55.144531 41.382812 54.375 38.648438 54.132812 38.648438 C 54.027344 38.648438 53.359375 38.914062 52.667969 39.207031 C 51.414062 39.773438 51.359375 39.773438 51.015625 39.289062 C 50.589844 38.699219 50.71875 38.59375 52.320312 37.976562 C 53.867188 37.414062 53.816406 37.277344 51.308594 34.890625 C 49.335938 33.039062 49.199219 33.039062 48.476562 35.078125 C 48.132812 36.074219 48.050781 36.097656 47.386719 35.558594 C 46.90625 35.210938 46.90625 35.160156 47.574219 34.003906 C 47.945312 33.359375 48.265625 32.769531 48.265625 32.6875 C 48.265625 32.289062 44.667969 31.132812 43.359375 31.132812 L 42.613281 31.132812 L 42.824219 36.230469 L 41.464844 36.230469 L 41.546875 33.679688 L 41.652344 31.132812 L 40.480469 31.160156 C 39.867188 31.1875 39.09375 31.265625 38.796875 31.316406 Z M 40.292969 32.257812 C 40.292969 32.3125 40.375 33.117188 40.453125 34.085938 C 40.613281 36.148438 41.089844 37.039062 42 37.039062 C 43.144531 37.039062 43.734375 36.148438 43.734375 34.40625 C 43.734375 32.339844 43.890625 32.152344 45.199219 32.5 C 46.640625 32.902344 46.773438 33.066406 46.398438 34.21875 C 46.109375 35.101562 46.132812 35.265625 46.691406 35.855469 C 47.46875 36.6875 48.265625 36.6875 49.066406 35.828125 C 49.867188 34.96875 50.132812 34.996094 51.066406 35.960938 L 51.839844 36.769531 L 50.984375 37.574219 C 49.359375 39.050781 50.214844 40.636719 52.53125 40.472656 C 53.570312 40.390625 53.707031 40.472656 53.921875 41.144531 C 54.375 42.402344 54.078125 42.671875 52.210938 42.671875 C 50.878906 42.671875 50.453125 42.78125 49.945312 43.261719 C 49.199219 43.964844 49.171875 44.550781 49.8125 45.332031 C 50.160156 45.789062 50.558594 45.917969 51.597656 45.917969 C 52.347656 45.917969 53.144531 46 53.414062 46.050781 C 53.972656 46.214844 54.027344 47.449219 53.519531 48.148438 C 53.226562 48.550781 53.066406 48.578125 52.585938 48.332031 C 51.226562 47.613281 49.597656 48.332031 49.597656 49.679688 C 49.597656 50.132812 50.828125 51.339844 51.523438 51.609375 C 51.785156 51.691406 51.734375 51.90625 51.308594 52.46875 C 50.34375 53.808594 50.027344 53.867188 48.960938 52.953125 C 47.894531 51.984375 47.148438 52.011719 46.480469 53.03125 C 46.160156 53.542969 46.132812 53.808594 46.398438 54.644531 C 46.691406 55.527344 46.691406 55.691406 46.242188 56.011719 C 45.972656 56.199219 45.4375 56.359375 45.039062 56.359375 C 44.375 56.359375 44.316406 56.28125 44.210938 54.75 C 44.078125 52.953125 43.496094 52.066406 42.457031 52.066406 C 41.359375 52.066406 40.800781 53.007812 40.800781 54.832031 L 40.800781 56.441406 L 39.597656 56.28125 C 38.910156 56.226562 38.292969 56.089844 38.214844 55.984375 C 38.132812 55.902344 38.1875 55.371094 38.347656 54.777344 C 38.746094 53.488281 38.558594 52.976562 37.542969 52.441406 C 36.800781 52.042969 36.746094 52.066406 35.8125 53.007812 C 34.75 54.078125 34.347656 54.078125 33.199219 52.871094 L 32.457031 52.09375 L 33.441406 51.179688 C 34.5625 50.105469 34.640625 49.679688 33.757812 48.871094 C 33.199219 48.332031 32.933594 48.28125 31.761719 48.445312 L 30.425781 48.632812 L 30.1875 47.71875 C 30.054688 47.234375 29.972656 46.753906 30.027344 46.671875 C 30.082031 46.589844 30.90625 46.429688 31.867188 46.375 C 33.816406 46.214844 34.667969 45.679688 34.667969 44.660156 C 34.667969 43.53125 33.707031 42.941406 31.839844 42.941406 C 30.90625 42.941406 30.105469 42.859375 30.054688 42.722656 C 29.839844 42.378906 30.402344 40.792969 30.746094 40.792969 C 30.933594 40.792969 31.464844 40.898438 31.949219 41.0625 C 32.71875 41.277344 32.933594 41.226562 33.496094 40.660156 C 34.347656 39.773438 34.292969 39.371094 33.171875 38.273438 L 32.210938 37.332031 L 33.066406 36.230469 C 33.519531 35.640625 34 35.160156 34.105469 35.160156 C 34.210938 35.160156 34.640625 35.507812 35.066406 35.960938 C 36 36.925781 36.292969 36.957031 37.226562 36.125 C 37.945312 35.535156 37.945312 35.453125 37.652344 34.382812 C 37.46875 33.761719 37.386719 33.144531 37.46875 33.011719 C 37.707031 32.632812 40.214844 31.964844 40.292969 32.257812 Z M 40.292969 32.257812 "/>
<path style=" stroke:none;fill-rule:nonzero;fill:rgb(0%,0%,0%);fill-opacity:1;" d="M 40.105469 38.996094 C 37.175781 40.148438 35.683594 43.316406 36.535156 46.457031 C 36.878906 47.664062 38.585938 49.492188 39.917969 50.082031 C 41.171875 50.613281 43.890625 50.429688 44.988281 49.761719 C 49.335938 47.074219 48.746094 40.578125 44.027344 38.96875 C 42.90625 38.566406 41.171875 38.59375 40.105469 38.996094 Z M 43.652344 39.585938 C 45.839844 40.230469 47.46875 42.484375 47.46875 44.820312 C 47.46875 45.199219 47.175781 46.132812 46.800781 46.886719 C 44.453125 51.984375 36.800781 50.242188 36.800781 44.605469 C 36.800781 42.484375 38.371094 40.3125 40.425781 39.585938 C 41.761719 39.101562 42.023438 39.101562 43.652344 39.585938 Z M 43.652344 39.585938 "/>
<path style=" stroke:none;fill-rule:nonzero;fill:rgb(0%,0%,0%);fill-opacity:1;" d="M 39.972656 40.257812 C 39.46875 40.523438 38.851562 40.957031 38.640625 41.226562 C 38.425781 41.488281 38.746094 41.382812 39.386719 40.957031 C 40.695312 40.070312 42.242188 39.800781 43.546875 40.230469 C 44.773438 40.636719 46.320312 42.378906 46.503906 43.53125 C 46.585938 44.015625 46.691406 44.710938 46.746094 45.085938 C 46.828125 45.460938 46.878906 45.273438 46.90625 44.632812 C 46.933594 43.238281 46.558594 42.214844 45.652344 41.226562 C 44.210938 39.695312 41.8125 39.289062 39.972656 40.257812 Z M 39.972656 40.257812 "/>
</g>
</svg>
