<?xml version="1.0" encoding="UTF-8"?>
<svg xmlns="http://www.w3.org/2000/svg" xmlns:xlink="http://www.w3.org/1999/xlink" width="77px" height="70px" viewBox="0 0 77 70" version="1.1">
<g id="surface1">
<path style=" stroke:none;fill-rule:nonzero;fill:rgb(0%,0%,0%);fill-opacity:1;" d="M 36.265625 3.964844 C 32.878906 4.785156 29.953125 7.050781 28.386719 10.011719 C 27.875 10.988281 27.464844 11.96875 27.464844 12.199219 C 27.464844 12.429688 27.359375 12.609375 27.230469 12.609375 C 26.691406 12.609375 26.460938 14.4375 26.566406 17.886719 C 26.617188 19.867188 26.691406 21.746094 26.746094 22.082031 C 26.820312 22.59375 26.539062 22.75 23.484375 23.78125 C 18.738281 25.375 9.214844 29.183594 6.828125 30.445312 C 3.207031 32.347656 2.027344 33.996094 3.386719 35.257812 C 4.054688 35.875 6.90625 36.828125 9.882812 37.417969 C 11.449219 37.726562 17.941406 38.601562 18.738281 38.601562 C 18.8125 38.601562 18.863281 40.480469 18.863281 42.773438 C 18.863281 47.636719 19.222656 49.179688 21.226562 53.09375 C 22.457031 55.484375 25.179688 58.675781 26.871094 59.730469 L 27.769531 60.296875 L 26.359375 61.070312 C 23.5625 62.5625 21.433594 65.214844 22.074219 66.398438 C 22.457031 67.09375 23.511719 67.066406 27.027344 66.242188 C 30.773438 65.394531 32.621094 65.46875 37.34375 66.757812 C 41.734375 67.941406 43.171875 67.914062 48.125 66.527344 C 51.078125 65.675781 51.691406 65.597656 53.515625 65.703125 C 54.644531 65.78125 56.59375 66.089844 57.828125 66.398438 C 60.703125 67.09375 61.960938 67.015625 62.0625 66.191406 C 62.214844 65.1875 61.625 64.15625 60.035156 62.691406 C 58.546875 61.300781 55.3125 59.449219 54.386719 59.449219 C 54.105469 59.449219 53.898438 59.421875 53.898438 59.371094 C 53.898438 59.34375 54.796875 58.394531 55.902344 57.234375 C 58.316406 54.714844 60.085938 51.78125 60.882812 49.027344 C 61.1875 47.894531 61.472656 46.914062 61.496094 46.890625 C 61.546875 46.839844 62.523438 47.148438 63.703125 47.585938 C 74.871094 51.675781 76.152344 49.617188 69.09375 38.988281 C 65.089844 32.941406 59.265625 25.96875 56.003906 23.265625 L 54.285156 21.847656 L 54.363281 19.328125 C 54.644531 11.582031 50.742188 5.6875 44.222656 3.988281 C 42.453125 3.527344 38.140625 3.527344 36.265625 3.964844 Z M 43.582031 5.53125 C 46.917969 6.332031 49.769531 8.519531 51.050781 11.246094 C 51.511719 12.277344 51.742188 12.507812 52.128906 12.429688 C 52.976562 12.199219 52.667969 12.84375 51.5625 13.5625 C 50.613281 14.207031 50.488281 14.207031 50.28125 13.820312 C 49.742188 12.84375 44.429688 13.640625 41.886719 15.054688 C 41.273438 15.414062 40.425781 15.699219 40.039062 15.699219 C 39.65625 15.699219 38.808594 15.414062 38.191406 15.054688 C 35.652344 13.640625 30.339844 12.84375 29.800781 13.820312 C 29.59375 14.230469 29.492188 14.207031 28.667969 13.640625 C 28.003906 13.175781 27.824219 12.917969 28.003906 12.6875 C 28.15625 12.53125 28.414062 12.429688 28.566406 12.507812 C 28.746094 12.558594 29.132812 12.070312 29.464844 11.347656 C 31.59375 6.664062 37.703125 4.144531 43.582031 5.53125 Z M 52.875 14.410156 C 52.875 15.105469 52.71875 15.261719 51.71875 15.699219 C 50.972656 16.03125 50.382812 16.523438 50.023438 17.089844 C 49.253906 18.425781 46.535156 19.558594 44.070312 19.558594 C 42.476562 19.558594 42.042969 19.300781 41.453125 18.015625 C 40.65625 16.238281 39.476562 16.34375 38.472656 18.296875 C 38.039062 19.148438 37.859375 19.300781 36.78125 19.457031 C 34.394531 19.816406 30.953125 18.605469 30.082031 17.113281 C 29.800781 16.652344 29.132812 16.058594 28.59375 15.800781 C 27.847656 15.441406 27.566406 15.132812 27.515625 14.59375 C 27.410156 13.792969 27.667969 13.71875 28.773438 14.308594 C 29.492188 14.667969 29.59375 14.667969 30.054688 14.257812 C 30.441406 13.898438 30.824219 13.84375 32.132812 13.972656 C 34.289062 14.179688 36.550781 14.796875 38.0625 15.570312 C 39.628906 16.367188 40.503906 16.367188 42.042969 15.570312 C 43.554688 14.773438 46.945312 13.898438 48.457031 13.898438 C 49.175781 13.898438 49.792969 14.050781 50.074219 14.308594 C 50.511719 14.695312 50.613281 14.695312 51.382812 14.207031 C 52.566406 13.460938 52.875 13.511719 52.875 14.410156 Z M 53.386719 16.058594 C 53.386719 16.265625 53.285156 16.496094 53.15625 16.574219 C 53.054688 16.652344 52.875 17.78125 52.796875 19.09375 C 52.695312 20.40625 52.566406 21.71875 52.488281 22.003906 C 52.359375 22.390625 52.539062 22.648438 53.179688 23.007812 C 55.566406 24.421875 62.574219 32.402344 67.117188 38.886719 C 69.25 41.898438 71.867188 46.761719 71.867188 47.660156 C 71.867188 48.152344 71.917969 48.175781 72.125 47.867188 C 72.277344 47.636719 72.378906 47.609375 72.378906 47.789062 C 72.378906 48.304688 72.046875 48.355469 70.710938 48.023438 C 68.503906 47.457031 67.734375 47.351562 67.886719 47.609375 C 68.144531 47.996094 67.835938 47.945312 64.628906 46.941406 L 61.601562 45.964844 L 60.957031 46.582031 L 60.316406 47.171875 L 60.289062 45.910156 C 60.265625 45.21875 60.214844 44.882812 60.164062 45.164062 C 60.113281 45.449219 59.933594 46.324219 59.777344 47.09375 C 59.417969 48.871094 58.136719 51.703125 56.773438 53.710938 C 55.386719 55.742188 51.976562 58.933594 51.179688 58.933594 C 50.230469 58.933594 48.355469 59.628906 45.558594 60.992188 C 42.375 62.5625 41.734375 62.664062 40.398438 61.84375 C 38.808594 60.839844 35.90625 59.550781 34.445312 59.191406 C 33.339844 58.90625 32.75 58.882812 31.183594 59.164062 C 28.953125 59.527344 28.824219 59.472656 26.078125 56.875 C 21.917969 52.9375 20.070312 47.816406 20.355469 41.046875 C 20.429688 39.347656 20.429688 38.21875 20.355469 38.550781 C 20.25 39.144531 20.226562 39.144531 19.351562 38.242188 C 18.402344 37.265625 18.171875 37.214844 15.066406 37.238281 C 14.375 37.238281 13.960938 37.160156 14.140625 37.058594 C 14.347656 36.90625 14.296875 36.828125 13.960938 36.75 C 13.347656 36.621094 15.167969 35.410156 19.25 33.25 C 23.792969 30.855469 24.101562 30.882812 22.203125 33.328125 C 20.738281 35.230469 19.917969 36.929688 20.175781 37.523438 C 20.300781 37.855469 20.40625 37.753906 20.535156 37.058594 C 20.714844 36.082031 21.558594 34.71875 23.460938 32.425781 C 24.152344 31.601562 24.539062 30.933594 24.410156 30.804688 C 23.921875 30.316406 20.535156 31.835938 15.886719 34.640625 C 14.375 35.539062 12.882812 36.285156 12.601562 36.285156 C 11.703125 36.285156 8.214844 35.539062 6.492188 34.972656 C 5.59375 34.691406 4.773438 34.511719 4.644531 34.589844 C 4.515625 34.664062 4.335938 34.5625 4.261719 34.355469 C 4.082031 33.84375 4.824219 33.378906 9.367188 31.140625 C 13.371094 29.15625 14.578125 28.695312 22.84375 25.761719 C 27.617188 24.089844 28.617188 23.625 28.59375 23.238281 C 28.566406 22.980469 28.4375 22.03125 28.257812 21.101562 C 28.105469 20.175781 27.976562 18.890625 27.976562 18.195312 C 27.976562 17.527344 27.875 16.984375 27.746094 16.984375 C 27.617188 16.984375 27.464844 16.753906 27.386719 16.445312 C 27.257812 15.980469 27.335938 15.929688 27.925781 16.058594 C 28.308594 16.160156 28.847656 16.523438 29.132812 16.882812 C 30.390625 18.476562 31.003906 18.96875 32.417969 19.40625 L 33.878906 19.867188 L 33.265625 20.355469 C 32.929688 20.613281 32.570312 21.128906 32.492188 21.488281 C 32.261719 22.363281 32.75 24.089844 33.519531 25.273438 C 34.238281 26.378906 34.265625 26.507812 33.804688 26.507812 C 32.800781 26.507812 29.722656 28.644531 27.824219 30.675781 C 20.996094 37.933594 21.996094 50.082031 29.953125 56.207031 C 32.957031 58.523438 37.679688 59.988281 41.453125 59.808594 C 45.019531 59.628906 49.253906 58.058594 51.382812 56.101562 C 52 55.535156 52.566406 55.074219 52.667969 55.074219 C 52.949219 55.074219 55.953125 50.957031 56.363281 49.976562 C 57.570312 47.121094 57.878906 45.421875 57.851562 41.820312 C 57.800781 38.527344 57.183594 36.390625 55.464844 33.457031 C 53.695312 30.496094 49.769531 27.125 47.304688 26.429688 C 46.6875 26.277344 46.199219 26.070312 46.199219 25.96875 C 46.199219 25.863281 46.480469 25.273438 46.839844 24.679688 C 47.894531 22.800781 47.507812 20.332031 46.175781 20.332031 C 45.40625 20.332031 45.816406 19.894531 46.765625 19.6875 C 48.511719 19.300781 49.792969 18.554688 50.359375 17.601562 C 50.691406 17.035156 51.308594 16.46875 51.949219 16.1875 C 53.234375 15.59375 53.386719 15.59375 53.386719 16.058594 Z M 40.9375 18.015625 C 41.144531 18.425781 41.324219 18.8125 41.324219 18.890625 C 41.324219 18.941406 40.734375 19.042969 40.039062 19.09375 C 39.320312 19.121094 38.757812 19.148438 38.757812 19.09375 C 38.757812 19.070312 38.9375 18.632812 39.117188 18.144531 C 39.605469 16.984375 40.375 16.933594 40.9375 18.015625 Z M 43.683594 20.253906 C 45.609375 20.484375 46.714844 21.257812 46.714844 22.339844 C 46.714844 23.984375 44.660156 26.480469 42.375 27.640625 C 39.988281 28.875 37.679688 28.386719 35.445312 26.199219 C 33.496094 24.292969 32.800781 21.925781 33.878906 20.84375 C 34.289062 20.433594 34.726562 20.332031 36.011719 20.332031 C 36.882812 20.332031 37.78125 20.203125 37.988281 20.074219 C 38.371094 19.84375 40.757812 19.894531 43.683594 20.253906 Z M 28.234375 23.058594 C 28.234375 23.394531 27.207031 23.984375 27 23.804688 C 26.949219 23.753906 27.105469 23.417969 27.386719 23.085938 C 27.875 22.414062 28.234375 22.414062 28.234375 23.058594 Z M 47.816406 27.664062 C 53.59375 30.496094 56.953125 36.003906 56.980469 42.59375 C 56.980469 45.421875 56.519531 47.351562 55.210938 50.054688 C 53.335938 53.890625 50.023438 56.71875 45.710938 58.265625 C 43.734375 58.960938 43.195312 59.035156 40.554688 59.035156 C 38.0625 59.035156 37.269531 58.90625 35.523438 58.34375 C 27.644531 55.71875 22.765625 47.714844 24.230469 39.683594 C 25.128906 34.613281 28.566406 29.980469 33.160156 27.640625 C 34.597656 26.917969 34.984375 26.867188 35.445312 27.433594 C 35.933594 28.027344 37.5 28.773438 38.886719 29.082031 C 40.449219 29.441406 42.296875 28.925781 44.042969 27.691406 C 44.738281 27.203125 45.457031 26.789062 45.636719 26.789062 C 45.816406 26.765625 46.816406 27.175781 47.816406 27.664062 Z M 53.386719 58.675781 C 53.105469 59.191406 52.359375 59.398438 52.359375 58.933594 C 52.359375 58.703125 53.078125 58.1875 53.464844 58.160156 C 53.566406 58.160156 53.539062 58.394531 53.386719 58.675781 Z M 28.925781 59.808594 C 28.773438 60.324219 28.308594 60.21875 28.054688 59.628906 C 27.769531 59.035156 27.796875 59.011719 28.386719 59.292969 C 28.722656 59.449219 28.953125 59.679688 28.925781 59.808594 Z M 35.546875 60.734375 C 38.960938 61.917969 42.351562 64.414062 42.351562 65.753906 C 42.351562 66.65625 41.757812 66.601562 36.855469 65.367188 C 31.953125 64.132812 30.722656 64.105469 26.488281 65.085938 C 24.769531 65.496094 23.304688 65.726562 23.226562 65.625 C 23.074219 65.367188 25.617188 62.972656 26.949219 62.125 C 29.902344 60.273438 32.828125 59.808594 35.546875 60.734375 Z M 55.773438 61.351562 C 56.929688 61.894531 58.367188 62.871094 59.289062 63.71875 C 61.0625 65.367188 61.292969 65.984375 60.007812 65.597656 C 58.90625 65.289062 53.796875 64.59375 52.460938 64.59375 C 51.898438 64.59375 50.230469 64.957031 48.792969 65.394531 C 47.328125 65.832031 45.585938 66.21875 44.890625 66.292969 C 43.789062 66.371094 43.632812 66.320312 43.632812 65.882812 C 43.632812 65.625 43.503906 65.085938 43.324219 64.722656 C 43.042969 64.105469 43.09375 63.976562 43.789062 63.4375 C 44.761719 62.613281 47.199219 61.328125 48.84375 60.710938 C 50.921875 59.9375 53.285156 60.144531 55.773438 61.351562 Z M 42.863281 63.027344 C 42.863281 63.71875 42.222656 63.875 41.707031 63.308594 C 41.324219 62.871094 41.324219 62.820312 41.757812 62.71875 C 42.65625 62.484375 42.863281 62.535156 42.863281 63.027344 Z M 42.863281 63.027344 "/>
<path style=" stroke:none;fill-rule:nonzero;fill:rgb(0%,0%,0%);fill-opacity:1;" d="M 59.546875 34.589844 C 59.546875 34.792969 59.777344 35.925781 60.035156 37.109375 C 60.753906 40.171875 60.933594 41.972656 60.597656 43.105469 C 60.445312 43.699219 60.417969 44.214844 60.546875 44.34375 C 60.703125 44.496094 60.855469 43.957031 60.984375 43.082031 C 61.136719 41.742188 60.957031 39.683594 60.417969 36.59375 C 60.164062 35.207031 60.753906 35.617188 62.214844 37.882812 C 63.703125 40.222656 66.578125 45.371094 66.988281 46.425781 C 67.117188 46.785156 67.347656 47.09375 67.503906 47.09375 C 67.632812 47.09375 67.761719 47.070312 67.761719 47.019531 C 67.761719 46.96875 66.9375 45.371094 65.9375 43.492188 C 62.679688 37.265625 59.546875 32.914062 59.546875 34.589844 Z M 59.546875 34.589844 "/>
<path style=" stroke:none;fill-rule:nonzero;fill:rgb(0%,0%,0%);fill-opacity:1;" d="M 43.890625 22.3125 C 43.890625 22.75 43.789062 23.417969 43.660156 23.753906 C 43.300781 24.65625 41.632812 26.222656 40.425781 26.789062 C 39.246094 27.332031 39.628906 27.460938 40.886719 26.945312 C 42.964844 26.070312 44.890625 23.160156 44.199219 21.976562 C 43.941406 21.539062 43.914062 21.59375 43.890625 22.3125 Z M 43.890625 22.3125 "/>
<path style=" stroke:none;fill-rule:nonzero;fill:rgb(0%,0%,0%);fill-opacity:1;" d="M 37.34375 30.03125 C 36.601562 30.214844 34.394531 31.191406 34.394531 31.320312 C 34.394531 31.398438 34.703125 32.015625 35.113281 32.710938 C 35.703125 33.816406 35.753906 34.023438 35.421875 34.226562 C 34.753906 34.664062 34.523438 34.511719 34.058594 33.328125 C 33.777344 32.683594 33.445312 32.167969 33.265625 32.167969 C 32.929688 32.167969 31.289062 33.84375 30.082031 35.4375 L 29.261719 36.492188 L 30.464844 36.957031 C 32.058594 37.523438 32.1875 37.675781 31.851562 38.320312 C 31.570312 38.835938 31.519531 38.835938 30.800781 38.472656 C 28.847656 37.46875 28.824219 37.46875 28.386719 38.9375 C 28.183594 39.683594 27.925781 40.714844 27.824219 41.253906 L 27.667969 42.230469 L 30.054688 42.179688 L 32.46875 42.128906 L 32.546875 42.824219 L 32.621094 43.492188 L 27.667969 43.492188 L 27.824219 44.445312 C 27.925781 44.984375 28.207031 46.039062 28.414062 46.785156 C 28.875 48.28125 28.953125 48.28125 30.878906 47.300781 L 31.828125 46.8125 L 32.058594 47.40625 C 32.339844 48.125 32.289062 48.175781 30.722656 48.742188 L 29.492188 49.207031 L 30.363281 50.285156 C 30.851562 50.851562 31.851562 51.855469 32.621094 52.472656 L 34.007812 53.605469 L 34.597656 52.292969 C 35.1875 50.980469 35.496094 50.75 36.136719 51.160156 C 36.394531 51.34375 36.316406 51.652344 35.804688 52.578125 C 35.421875 53.246094 35.1875 53.890625 35.265625 54.019531 C 35.394531 54.222656 39.527344 55.332031 40.144531 55.332031 C 40.21875 55.332031 40.296875 54.277344 40.296875 53.015625 C 40.296875 50.722656 40.296875 50.699219 40.9375 50.699219 C 41.578125 50.699219 41.578125 50.722656 41.578125 53.015625 C 41.578125 54.277344 41.683594 55.332031 41.785156 55.332031 C 42.324219 55.332031 46.070312 54.277344 46.277344 54.070312 C 46.429688 53.914062 46.25 53.347656 45.816406 52.628906 C 45.429688 51.960938 45.171875 51.417969 45.226562 51.367188 C 45.25 51.34375 45.507812 51.1875 45.738281 50.980469 C 46.121094 50.699219 46.25 50.800781 46.839844 51.960938 C 47.199219 52.679688 47.585938 53.273438 47.714844 53.273438 C 47.996094 53.273438 50.332031 50.800781 50.949219 49.847656 C 51.488281 49 51.382812 48.871094 49.613281 48.332031 C 48.535156 48.023438 48.355469 47.789062 48.664062 47.019531 C 48.792969 46.683594 49.074219 46.734375 50.433594 47.351562 L 52.050781 48.074219 L 52.460938 46.761719 C 52.71875 46.015625 52.976562 44.855469 53.054688 44.1875 L 53.207031 42.925781 L 50.792969 43.03125 C 48.40625 43.105469 48.382812 43.105469 48.382812 42.488281 C 48.382812 41.898438 48.433594 41.898438 50.820312 41.84375 L 53.257812 41.820312 L 53.179688 40.917969 C 53.078125 39.683594 52.335938 37.058594 52.101562 37.058594 C 52 37.058594 51.359375 37.316406 50.691406 37.597656 C 49.484375 38.140625 49.433594 38.140625 49.101562 37.675781 C 48.691406 37.109375 48.816406 37.007812 50.359375 36.414062 C 51.847656 35.875 51.796875 35.746094 49.382812 33.457031 C 47.484375 31.679688 47.355469 31.679688 46.660156 33.636719 C 46.328125 34.589844 46.25 34.613281 45.609375 34.097656 C 45.148438 33.765625 45.148438 33.714844 45.789062 32.605469 C 46.148438 31.988281 46.457031 31.421875 46.457031 31.34375 C 46.457031 30.960938 42.992188 29.851562 41.734375 29.851562 L 41.015625 29.851562 L 41.21875 34.742188 L 39.910156 34.742188 L 39.988281 32.296875 L 40.089844 29.851562 L 38.960938 29.878906 C 38.371094 29.90625 37.628906 29.980469 37.34375 30.03125 Z M 38.78125 30.933594 C 38.78125 30.984375 38.859375 31.757812 38.9375 32.683594 C 39.089844 34.664062 39.550781 35.515625 40.425781 35.515625 C 41.527344 35.515625 42.09375 34.664062 42.09375 32.992188 C 42.09375 31.011719 42.246094 30.832031 43.503906 31.164062 C 44.890625 31.550781 45.019531 31.707031 44.660156 32.8125 C 44.378906 33.660156 44.402344 33.816406 44.941406 34.382812 C 45.6875 35.179688 46.457031 35.179688 47.226562 34.355469 C 47.996094 33.53125 48.253906 33.558594 49.152344 34.484375 L 49.894531 35.257812 L 49.074219 36.03125 C 47.507812 37.445312 48.332031 38.964844 50.5625 38.808594 C 51.5625 38.730469 51.691406 38.808594 51.898438 39.453125 C 52.335938 40.660156 52.050781 40.917969 50.253906 40.917969 C 48.972656 40.917969 48.5625 41.023438 48.074219 41.484375 C 47.355469 42.15625 47.328125 42.71875 47.945312 43.46875 C 48.277344 43.90625 48.664062 44.03125 49.664062 44.03125 C 50.382812 44.03125 51.152344 44.109375 51.410156 44.160156 C 51.949219 44.316406 52 45.5 51.511719 46.167969 C 51.230469 46.554688 51.078125 46.582031 50.613281 46.347656 C 49.304688 45.65625 47.738281 46.347656 47.738281 47.636719 C 47.738281 48.074219 48.921875 49.230469 49.589844 49.488281 C 49.84375 49.566406 49.792969 49.773438 49.382812 50.3125 C 48.457031 51.597656 48.152344 51.652344 47.125 50.777344 C 46.097656 49.847656 45.378906 49.875 44.738281 50.851562 C 44.429688 51.34375 44.402344 51.597656 44.660156 52.398438 C 44.941406 53.246094 44.941406 53.402344 44.507812 53.710938 C 44.25 53.890625 43.734375 54.042969 43.351562 54.042969 C 42.710938 54.042969 42.65625 53.96875 42.554688 52.5 C 42.425781 50.777344 41.863281 49.925781 40.863281 49.925781 C 39.808594 49.925781 39.269531 50.828125 39.269531 52.578125 L 39.269531 54.121094 L 38.113281 53.96875 C 37.449219 53.914062 36.855469 53.785156 36.78125 53.683594 C 36.703125 53.605469 36.753906 53.09375 36.910156 52.527344 C 37.292969 51.289062 37.113281 50.800781 36.136719 50.285156 C 35.421875 49.902344 35.367188 49.925781 34.46875 50.828125 C 33.445312 51.855469 33.058594 51.855469 31.953125 50.699219 L 31.238281 49.953125 L 32.1875 49.078125 C 33.265625 48.046875 33.339844 47.636719 32.492188 46.863281 C 31.953125 46.347656 31.699219 46.296875 30.570312 46.453125 L 29.285156 46.632812 L 29.054688 45.757812 C 28.925781 45.292969 28.847656 44.832031 28.902344 44.753906 C 28.953125 44.675781 29.746094 44.523438 30.671875 44.46875 C 32.546875 44.316406 33.367188 43.800781 33.367188 42.824219 C 33.367188 41.742188 32.441406 41.175781 30.644531 41.175781 C 29.746094 41.175781 28.976562 41.097656 28.925781 40.96875 C 28.722656 40.636719 29.261719 39.117188 29.59375 39.117188 C 29.773438 39.117188 30.285156 39.21875 30.75 39.375 C 31.492188 39.582031 31.699219 39.53125 32.238281 38.988281 C 33.058594 38.140625 33.007812 37.753906 31.929688 36.699219 L 31.003906 35.796875 L 31.828125 34.742188 C 32.261719 34.175781 32.726562 33.714844 32.828125 33.714844 C 32.929688 33.714844 33.339844 34.046875 33.75 34.484375 C 34.648438 35.410156 34.933594 35.4375 35.832031 34.640625 C 36.523438 34.074219 36.523438 33.996094 36.242188 32.96875 C 36.0625 32.375 35.984375 31.78125 36.0625 31.65625 C 36.292969 31.292969 38.707031 30.652344 38.78125 30.933594 Z M 38.78125 30.933594 "/>
<path style=" stroke:none;fill-rule:nonzero;fill:rgb(0%,0%,0%);fill-opacity:1;" d="M 38.601562 37.394531 C 35.78125 38.5 34.34375 41.535156 35.164062 44.546875 C 35.496094 45.707031 37.140625 47.457031 38.421875 48.023438 C 39.628906 48.535156 42.246094 48.355469 43.300781 47.714844 C 47.484375 45.140625 46.917969 38.910156 42.375 37.367188 C 41.296875 36.980469 39.628906 37.007812 38.601562 37.394531 Z M 42.015625 37.960938 C 44.121094 38.578125 45.6875 40.738281 45.6875 42.976562 C 45.6875 43.339844 45.40625 44.238281 45.046875 44.960938 C 42.785156 49.847656 35.421875 48.175781 35.421875 42.773438 C 35.421875 40.738281 36.933594 38.65625 38.910156 37.960938 C 40.195312 37.496094 40.449219 37.496094 42.015625 37.960938 Z M 42.015625 37.960938 "/>
<path style=" stroke:none;fill-rule:nonzero;fill:rgb(0%,0%,0%);fill-opacity:1;" d="M 38.472656 38.601562 C 37.988281 38.859375 37.394531 39.273438 37.191406 39.53125 C 36.984375 39.785156 37.292969 39.683594 37.910156 39.273438 C 39.167969 38.421875 40.65625 38.164062 41.914062 38.578125 C 43.09375 38.964844 44.582031 40.636719 44.761719 41.742188 C 44.839844 42.207031 44.941406 42.875 44.992188 43.234375 C 45.070312 43.59375 45.121094 43.414062 45.148438 42.796875 C 45.171875 41.460938 44.8125 40.480469 43.941406 39.53125 C 42.554688 38.0625 40.246094 37.675781 38.472656 38.601562 Z M 38.472656 38.601562 "/>
</g>
</svg>
